<svg width="95" height="94" viewBox="0 0 95 94" fill="none" xmlns="http://www.w3.org/2000/svg">
<path d="M0 13.375C0 5.99785 5.3252 0 11.875 0H83.125C89.6748 0 95 5.99785 95 13.375V80.25C95 87.6272 89.6748 93.625 83.125 93.625H11.875C5.3252 93.625 0 87.6272 0 80.25V13.375ZM60.0801 35.6318C59.2451 34.2525 57.8721 33.4375 56.4062 33.4375C54.9404 33.4375 53.5488 34.2525 52.7324 35.6318L36.5898 62.2982L31.6729 55.3809C30.8193 54.1896 29.5391 53.5 28.2031 53.5C26.8672 53.5 25.5684 54.1896 24.7334 55.3809L12.8584 72.0996C11.7822 73.6043 11.5781 75.6732 12.3203 77.4078C13.0625 79.1424 14.6211 80.25 16.3281 80.25H34.1406H40.0781H78.6719C80.3232 80.25 81.8447 79.226 82.6055 77.575C83.3662 75.924 83.2734 73.9387 82.3457 72.4131L60.0801 35.6318ZM20.7812 33.4375C23.1433 33.4375 25.4087 32.3806 27.0789 30.4994C28.7492 28.6182 29.6875 26.0667 29.6875 23.4062C29.6875 20.7458 28.7492 18.1943 27.0789 16.3131C25.4087 14.4319 23.1433 13.375 20.7812 13.375C18.4192 13.375 16.1538 14.4319 14.4836 16.3131C12.8133 18.1943 11.875 20.7458 11.875 23.4062C11.875 26.0667 12.8133 28.6182 14.4836 30.4994C16.1538 32.3806 18.4192 33.4375 20.7812 33.4375Z" fill="#000048"/>
</svg>
